<?xml version='1.0' encoding='utf-8'?>
<svg xmlns="http://www.w3.org/2000/svg" version="1.1" id="Layer_1" x="0px" y="0px" viewBox="0 0 2419.904 1645.665" enable-background="new 0 0 2419.904 1645.665"> <g> <path d="M813.058,1417.759c-35.935-27.231-73.679-53.903-111.672-100.43c-28.246-34.589-56.686-41.736-118.748-104.139 c-66.345-66.711-48.188-96.877-94.338-139.721c-40.879-37.95-69.848-44.99-112.172-111.189 c-53.331-83.413-88.098-221.961-100.318-319.828c-9.441-75.612-39.024-140.3-95.61-192.272 c-36.185-33.235-123.484-32.939-142.761-47.521c-8.17-6.18-1.014-19.521,5.352-24.839c35.428-29.595,126.157-57.003,170.685-69.2 c45.989-12.597,69.728,14.066,106.045,47.596c64.37,59.43,97.701,124.622,154.093,215.574 c36.302,58.55,74.955,78.999,136.177,119.276c18.161,11.947,32.974,8.708,42.291-11.441c18.665-40.363,39.445-79.613,61.93-117.978 c10.958-18.698,34.085-40.925,38.151-66.943c3.143-20.113-6.108-31.063-20.875-60.114c-12.32-24.239-15.217-49.179,9.227-61.025 c15.934-7.722,33.244-4.866,60.526-24.346c31.486-22.482,84.639-42.529,147.678-45.059c52.354-2.101,51.185-0.143,54.249-4.488 c27.551-39.079,92.495-80.809,126.368-91.555c40.101-12.722,51.235-3.596,66.838-15.139c5.234-3.872,6.701-7.664,3.896-13.277 c-4.961-9.929-9.941-19.962-16.981-28.609c-10.561-12.971-39.535-19.079-54.671-26.954c-21.286-11.075-30.823-12.048-30.86-28.518 c-0.023-10.2,1.944-20.683,7.502-28.587c23.287-33.116,28.457-16.071,41.005-26.491c10.88-9.034,24.323-10.574,37.454-12.949 c40.303-7.291,55.809,8.42,80.473,0.923c41.418-12.589,72.779-2.1,130.142,10.709c15.574,3.478,29.446,11.614,41.178,21.893 c11.368,9.96,16.04,24.209,14.318,39.533c-2.812,25.03-33.581,35.785-58.364,41.017c-28.378,5.991-41.734,26.479-51.309,51.076 c-1.498,3.849-0.73,5.541,3.659,6.267c38.47,6.359,61.173,9.388,128.834,47.601c42.428,23.962,43.879,53.433,66.25,52.54 c148.602-5.928,147.812,45.259,245.973,67.052c72.888,16.183,0.797,69.039-4.988,108.572c-2.755,18.82,20.935,2.192,42.612,16.032 c14.046,8.967,20.17,13.58,35.309,13.1c23.605-0.749,31.862-27.919,29.35-51.494c-6.453-60.552-14.227-60.972-8.56-113.604 c4.513-41.912,19.444-62.661,30.588-80.555c21.393-34.35,42.808-62.587,80.345-77.32c50.202-19.705,66.852-28.66,119.639-32.046 c27.259-1.748,61.225-4.342,86.1-15.629c13.382-6.072,40.533-10.828,45.802,10.061c5.093,20.197,0.097,36.208,20.877,54.027 c93.945,80.555,142.406,180.116,118.5,302.885c-12.916,66.331-14.36,90.465-119.032,257.039 c-40.31,64.152-139.027,150.768-176.426,297.369c-14.799,58.01-6.692,11.403-39.075,106.356 c-7.442,21.82-34.27,26.231-48.307,10.729c-14.494-16.004,0.423,9.463-98.801,92.95c-85.632,72.051-53.539,47.654-95.864,88.865 c-68.477,66.674-76.534,49.106-68.39,62.736c9.043,15.134,14.9,31.483,16.148,49.068c2.483,34.989-38.676,76.137-78.149,94.23 c-257.205,117.892-947.813,63.09-875.233-110.007C801.634,1438.798,805.43,1427.692,813.058,1417.759z M2000.316,275.069 c-36.115,27.707-44.989,62.82-41.11,108.921c1.876,22.3,16.89,41.892,50.249,49.203c26.496,5.807,49.699,36.384,34.047,68.525 c-5.539,11.375-9.493,29.148-49.468,39.988c-21.26,5.765-26.596,23.365-37.994,52.23c-15.604,39.512-39.701,55.885-58.953,59.064 c-4.402,0.727-19.915,13.553-7.966,33.972c49.024,83.774,55.745,91.797,96.247,194.165c20.916,52.863,21.759,75.942,24.3,84.352 c2.557,8.463,11.537,12.098,22.54-7.417c81.238-144.084,160.677-214.733,245.152-382.546 c34.065-67.673,34.496-138.183,11.774-210.137C2260.042,273.262,2116.77,185.727,2000.316,275.069z"/> </g> </svg>